<?xml version="1.0" standalone="no"?>
<!DOCTYPE svg PUBLIC "-//W3C//DTD SVG 1.1//EN" "http://www.w3.org/Graphics/SVG/1.1/DTD/svg11.dtd" >
<svg xmlns="http://www.w3.org/2000/svg">
<metadata>
Created by FontForge 20120731 at Thu Dec 29 08:39:36 2016
 By admin
</metadata>
<defs>
<font id="iconfont" horiz-adv-x="1024" >
  <font-face 
    font-family="iconfont"
    font-weight="500"
    font-stretch="normal"
    units-per-em="1024"
    panose-1="2 0 6 3 0 0 0 0 0 0"
    ascent="896"
    descent="-128"
    x-height="792"
    bbox="44 -64 960 832"
    underline-thickness="0"
    underline-position="0"
    unicode-range="U+0078-E60E"
  />
<missing-glyph 
 />
    <glyph glyph-name=".notdef" 
 />
    <glyph glyph-name=".notdef" 
 />
    <glyph glyph-name=".null" horiz-adv-x="0" 
 />
    <glyph glyph-name="nonmarkingreturn" horiz-adv-x="341" 
 />
    <glyph glyph-name="x" unicode="x" horiz-adv-x="1001" 
d="M281 543q-27 -1 -53 -1h-83q-18 0 -36.5 -6t-32.5 -18.5t-23 -32t-9 -45.5v-76h912v41q0 16 -0.5 30t-0.5 18q0 13 -5 29t-17 29.5t-31.5 22.5t-49.5 9h-133v-97h-438v97zM955 310v-52q0 -23 0.5 -52t0.5 -58t-10.5 -47.5t-26 -30t-33 -16t-31.5 -4.5q-14 -1 -29.5 -0.5
t-29.5 0.5h-32l-45 128h-439l-44 -128h-29h-34q-20 0 -45 1q-25 0 -41 9.5t-25.5 23t-13.5 29.5t-4 30v167h911zM163 247q-12 0 -21 -8.5t-9 -21.5t9 -21.5t21 -8.5q13 0 22 8.5t9 21.5t-9 21.5t-22 8.5zM316 123q-8 -26 -14 -48q-5 -19 -10.5 -37t-7.5 -25t-3 -15t1 -14.5
t9.5 -10.5t21.5 -4h37h67h81h80h64h36q23 0 34 12t2 38q-5 13 -9.5 30.5t-9.5 34.5q-5 19 -11 39h-368zM336 498v228q0 11 2.5 23t10 21.5t20.5 15.5t34 6h188q31 0 51.5 -14.5t20.5 -52.5v-227h-327z" />
    <glyph glyph-name="qingchu" unicode="&#xe60d;" 
d="M512 832q-91 0 -174 -35.5t-143 -95.5t-95.5 -143t-35.5 -174t35.5 -174t95.5 -143t143 -95.5t174 -35.5t174 35.5t143 95.5t95.5 143t35.5 174t-35.5 174t-95.5 143t-143 95.5t-174 35.5zM565 331v0h-106v0h-166v106h438v-106h-166z" />
    <glyph glyph-name="qiyong" unicode="&#xe60e;" 
d="M512 832q-91 0 -174 -35.5t-143 -95.5t-95.5 -143t-35.5 -174t35.5 -174t95.5 -143t143 -95.5t174 -35.5t174 35.5t143 95.5t95.5 143t35.5 174t-35.5 174t-95.5 143t-143 95.5t-174 35.5v0zM448 174v1v-1l-216 216l76 76l140 -140l268 268l76 -76l-344 -344v0zM448 174z
" />
    <glyph glyph-name="mimadenglu" unicode="&#xe600;" 
d="M821 450h-85v155q0 94 -60 160.5t-145 66.5h-38q-85 0 -145 -66.5t-60 -160.5v-155h-85q-17 0 -29 -13.5t-12 -31.5v-424q0 -18 12 -31.5t29 -13.5h618q17 0 29 13.5t12 31.5v424q0 18 -12 31.5t-29 13.5v0zM512 16q-32 0 -55 25t-23 60q0 47 36 72v149q0 18 12 30.5
t29 12.5t29 -12.5t12 -30.5v-147q38 -25 38 -74q0 -35 -23 -60t-55 -25v0zM671 450h-310v138q0 63 41.5 108t99.5 45h27q59 0 100.5 -45t41.5 -108v-138v0zM671 450z" />
    <glyph glyph-name="yanzhengmadenglu" unicode="&#xe601;" 
d="M538 -64l1 512l357 146v-512l-358 -146v0v0zM129 683l383 149l383 -149l-383 -148l-383 148v0v0zM486 -64l-358 146v512l357 -146l1 -512v0v0zM486 -64z" />
    <glyph glyph-name="yonghudenglu" unicode="&#xe602;" 
d="M637 284q-3 1 -6.5 3t-9 8t-8.5 14.5t-2 24t7 34.5v0q44 45 72.5 111.5t28.5 134.5q0 103 -59.5 160.5t-147.5 57.5t-147 -57.5t-59 -160.5q0 -68 28 -134.5t73 -112.5q7 -22 7 -37t-8.5 -25.5t-14 -14.5t-10.5 -6q-63 -23 -118 -52t-95 -67.5t-40 -74.5v-28
q0 -126 385 -126q383 0 383 126v28q0 37 -40.5 75.5t-97 67.5t-121.5 51v0zM637 284z" />
    <glyph glyph-name="mokuai" unicode="&#xe603;" 
d="M64 434h398v398h-398v-398v0zM562 832v-398h398v398h-398v0zM64 -64h398v398h-398v-398v0zM562 -64h398v398h-398v-398v0zM562 -64z" />
    <glyph glyph-name="zhuye" unicode="&#xe604;" 
d="M189 347v-411h225v277h196v-277h225v411h125l-448 485l-448 -485h125zM189 347z" />
    <glyph glyph-name="fengefu" unicode="&#xe605;" 
d="M357 25l310 355l-310 -355v0v0zM692 380q0 -9 -6 -16l-310 -355q-7 -8 -17.5 -9t-18 6t-8.5 17.5t6 18.5l310 355q7 8 17.5 8.5t17.5 -6.5q9 -7 9 -19v0v0zM357 743l310 -355l-310 355v0v0zM692 388q0 -12 -9 -19q-7 -7 -17.5 -6.5t-17.5 8.5l-310 355q-7 8 -6 18.5
t8.5 17.5t18 6t17.5 -9l310 -355q6 -7 6 -16v0v0zM692 388z" />
    <glyph glyph-name="liebiao" unicode="&#xe606;" 
d="M128 704h768v-66h-768v66v0zM128 704zM128 417h768v-66h-768v66v0zM128 417zM128 130h768v-66h-768v66v0zM128 130z" />
    <glyph glyph-name="jiantou" unicode="&#xe607;" 
d="M588 384l-152 -150v300l152 -150v0zM588 384z" />
    <glyph glyph-name="shousuo" unicode="&#xe608;" 
d="M192 400h640v-32h-640v32v0zM192 400z" />
    <glyph glyph-name="zhankai" unicode="&#xe609;" 
d="M192 400h640v-32h-640v32v0zM192 400zM528 704v-640h-32v640h32v0zM528 704z" />
    <glyph glyph-name="sousuo" unicode="&#xe60a;" 
d="M830 103l-120 122q56 70 56 160q0 105 -74.5 180t-180 75t-180.5 -75t-75 -180.5t75 -180.5t180 -75q91 0 162 58l120 -121q8 -8 18.5 -8t18.5 7.5t8 18.5t-8 19v0zM309 385q0 83 59.5 142.5t143 59.5t142.5 -59.5t59 -143t-59 -143t-142.5 -59.5t-143 59.5t-59.5 143.5
v0zM309 385z" />
    <glyph glyph-name="fanhui" unicode="&#xe60b;" 
d="M867 122h-464q-36 0 -61.5 25.5t-25.5 61.5v396l81 -82q9 -8 21 -8t20.5 8.5t8.5 20.5t-9 21l-130 130q-9 9 -21 9t-20 -9l-131 -130q-8 -9 -8 -21t8.5 -20.5t20.5 -8.5t20 8l81 82v-396q0 -60 42.5 -102.5t102.5 -42.5h464q12 0 20.5 8.5t8.5 20.5t-8.5 20.5t-20.5 8.5
v0zM867 122z" />
    <glyph glyph-name="xinghao" unicode="&#xe60c;" 
d="M769 416h-180l127 127q10 9 10 22.5t-9.5 23t-23 9.5t-22.5 -10l-127 -127v180q0 13 -9.5 22.5t-22.5 9.5t-22.5 -9.5t-9.5 -22.5v-180l-127 127q-9 10 -22.5 10t-23 -9.5t-9.5 -23t10 -22.5l127 -127h-180q-13 0 -22.5 -9.5t-9.5 -22.5t9.5 -22.5t22.5 -9.5h180
l-127 -127q-10 -9 -10 -22.5t9.5 -23t23 -9.5t22.5 10l127 127v-180q0 -13 9.5 -22.5t22.5 -9.5t22.5 9.5t9.5 22.5v179l127 -126q9 -10 22.5 -10t23 9.5t9.5 23t-10 22.5l-127 127h180q13 0 22.5 9.5t9.5 22.5t-9.5 22.5t-22.5 9.5v0zM769 416z" />
  </font>
</defs>
</svg>
